<?xml version="1.0" encoding="UTF-8"?>
<!DOCTYPE svg PUBLIC "-//W3C//DTD SVG 1.1//EN" "http://www.w3.org/Graphics/SVG/1.1/DTD/svg11.dtd">
<!-- Creator: CorelDRAW X8 -->
<svg xmlns="http://www.w3.org/2000/svg" xml:space="preserve" width="2.92135in" height="0.386831in" version="1.1" style="shape-rendering:geometricPrecision; text-rendering:geometricPrecision; image-rendering:optimizeQuality; fill-rule:evenodd; clip-rule:evenodd"
viewBox="0 0 9727 1288"
 xmlns:xlink="http://www.w3.org/1999/xlink">
 <defs>
  <style type="text/css">
   <![CDATA[
    .str0 {stroke:#2B2A29;stroke-width:34.6728}
    .str1 {stroke:#2B2A29;stroke-width:23.1108}
    .fil0 {fill:none}
   ]]>
  </style>
 </defs>
 <g id="Layer_x0020_1">
  <metadata id="CorelCorpID_0Corel-Layer"/>
  <g id="_1041220838672">
   <path class="fil0 str0" d="M9714 183c-1166,371 -2241,1006 -3604,1076 -3050,155 -6095,-1222 -6095,-1222 92,-164 2879,739 4744,724 788,-6 1292,-64 1915,-158 688,-103 1521,-250 3040,-420z"/>
   <path class="fil0 str1" d="M15 37c546,60 3170,878 3748,933 174,17 194,78 1090,45 106,-4 1547,82 2651,-291 102,-34 439,-199 1012,-264 228,-26 650,-164 959,-197 39,-4 276,-83 239,-80"/>
  </g>
 </g>
</svg>
