<?xml version="1.0" encoding="UTF-8"?>
<!DOCTYPE svg PUBLIC "-//W3C//DTD SVG 1.1//EN" "http://www.w3.org/Graphics/SVG/1.1/DTD/svg11.dtd">
<!-- Creator: CorelDRAW X8 -->
<svg xmlns="http://www.w3.org/2000/svg" xml:space="preserve" width="2.46663in" height="0.740685in" version="1.1" style="shape-rendering:geometricPrecision; text-rendering:geometricPrecision; image-rendering:optimizeQuality; fill-rule:evenodd; clip-rule:evenodd"
viewBox="0 0 3160 949"
 xmlns:xlink="http://www.w3.org/1999/xlink">
 <defs>
  <style type="text/css">
   <![CDATA[
    .str0 {stroke:#2B2A29;stroke-width:8.89126}
    .fil0 {fill:none}
   ]]>
  </style>
 </defs>
 <g id="Layer_x0020_1">
  <metadata id="CorelCorpID_0Corel-Layer"/>
  <path class="fil0 str0" d="M10 5c14,17 -8,42 69,131 105,118 113,122 273,196 117,54 412,187 524,219 23,6 0,0 203,65 183,58 922,263 1121,257 236,-7 416,44 627,26 8,-1 299,5 304,5m-3052 -662c198,218 479,333 650,415 396,189 631,202 678,208 322,44 1368,134 1744,34 47,-12 -326,-28 -591,-75 -175,-31 -340,-57 -391,-66 -424,-78 -831,-158 -1199,-348 -243,-126 -764,-224 -960,-405 -10,-9 -15,144 69,237z"/>
 </g>
</svg>
