<?xml version="1.0" encoding="UTF-8"?>
<!DOCTYPE svg PUBLIC "-//W3C//DTD SVG 1.1//EN" "http://www.w3.org/Graphics/SVG/1.1/DTD/svg11.dtd">
<!-- Creator: CorelDRAW X8 -->
<svg xmlns="http://www.w3.org/2000/svg" xml:space="preserve" width="1.18216in" height="0.549744in" version="1.1" style="shape-rendering:geometricPrecision; text-rendering:geometricPrecision; image-rendering:optimizeQuality; fill-rule:evenodd; clip-rule:evenodd"
viewBox="0 0 558 259"
 xmlns:xlink="http://www.w3.org/1999/xlink">
 <defs>
  <style type="text/css">
   <![CDATA[
    .str0 {stroke:#2B2A29;stroke-width:4.91335}
    .fil0 {fill:none}
   ]]>
  </style>
 </defs>
 <g id="Layer_x0020_1">
  <metadata id="CorelCorpID_0Corel-Layer"/>
  <path class="fil0 str0" d="M381 130c-6,-1 -74,22 -82,49 -8,24 13,49 25,53 51,17 92,36 147,17 31,-11 79,-60 82,-76 23,-121 -154,-159 -239,-170 -80,-9 -305,55 -311,120 19,-6 56,-11 109,-31 82,-32 155,-48 255,-28 47,9 114,23 100,100 -6,37 -72,35 -108,31 -27,-3 14,-63 22,-65zm-378 -7c-6,-21 95,-57 106,-59 74,-12 65,-37 156,-35 87,2 105,11 185,37 37,13 62,30 57,76 -1,2 0,6 -5,27 -3,15 -8,37 -44,51 -46,18 -82,16 -113,-6 -26,-18 -19,-30 -5,-52 7,-12 31,-19 35,-31"/>
 </g>
</svg>
