<?xml version="1.0" encoding="UTF-8"?>
<!DOCTYPE svg PUBLIC "-//W3C//DTD SVG 1.1//EN" "http://www.w3.org/Graphics/SVG/1.1/DTD/svg11.dtd">
<!-- Creator: CorelDRAW X8 -->
<svg xmlns="http://www.w3.org/2000/svg" xml:space="preserve" width="2.91727in" height="0.430425in" version="1.1" style="shape-rendering:geometricPrecision; text-rendering:geometricPrecision; image-rendering:optimizeQuality; fill-rule:evenodd; clip-rule:evenodd"
viewBox="0 0 2955 436"
 xmlns:xlink="http://www.w3.org/1999/xlink">
 <defs>
  <style type="text/css">
   <![CDATA[
    .str0 {stroke:#2B2A29;stroke-width:10.5487}
    .str1 {stroke:#2B2A29;stroke-width:7.03112}
    .fil0 {fill:none}
   ]]>
  </style>
 </defs>
 <g id="Layer_x0020_1">
  <metadata id="CorelCorpID_0Corel-Layer"/>
  <g id="_1041219355536">
   <path class="fil0 str0" d="M4 431c346,-138 659,-353 1071,-404 922,-112 1875,241 1875,241 -24,51 -889,-163 -1455,-119 -239,19 -390,48 -578,89 -206,46 -456,109 -913,193z"/>
   <path class="fil0 str1" d="M2950 268c-167,-7 -980,-199 -1157,-203 -53,-2 -61,-20 -332,9 -32,4 -471,9 -798,145 -30,13 -129,70 -301,102 -69,13 -194,64 -287,81 -12,2 -82,31 -71,29"/>
  </g>
 </g>
</svg>
