<?xml version="1.0" encoding="UTF-8"?>
<!DOCTYPE svg PUBLIC "-//W3C//DTD SVG 1.1//EN" "http://www.w3.org/Graphics/SVG/1.1/DTD/svg11.dtd">
<!-- Creator: CorelDRAW X8 -->
<svg xmlns="http://www.w3.org/2000/svg" xml:space="preserve" width="2.54847in" height="0.480374in" version="1.1" style="shape-rendering:geometricPrecision; text-rendering:geometricPrecision; image-rendering:optimizeQuality; fill-rule:evenodd; clip-rule:evenodd"
viewBox="0 0 6180 1165"
 xmlns:xlink="http://www.w3.org/1999/xlink">
 <defs>
  <style type="text/css">
   <![CDATA[
    .str0 {stroke:#2B2A29;stroke-width:16.8307}
    .fil0 {fill:none}
   ]]>
  </style>
 </defs>
 <g id="Layer_x0020_1">
  <metadata id="CorelCorpID_0Corel-Layer"/>
  <path class="fil0 str0" d="M6166 1156c-32,-27 1,-82 -173,-220 -234,-187 -251,-192 -574,-276 -235,-61 -829,-211 -1048,-234 -45,-4 0,0 -400,-53 -361,-49 -1805,-184 -2175,-108 -437,91 -790,57 -1177,160 -14,4 -559,89 -568,91m5907 221c-440,-341 -1004,-461 -1349,-557 -801,-221 -1243,-167 -1332,-163 -615,24 -2595,205 -3263,515 -83,39 618,-55 1127,-55 337,-1 653,-8 751,-7 816,4 1602,18 2351,250 494,153 1498,163 1923,436 22,14 -20,-272 -208,-419z"/>
 </g>
</svg>
