<?xml version="1.0" encoding="UTF-8"?>
<!DOCTYPE svg PUBLIC "-//W3C//DTD SVG 1.0//EN" "http://www.w3.org/TR/2001/REC-SVG-20010904/DTD/svg10.dtd">
<!-- Creator: CorelDRAW X8 -->
<svg xmlns="http://www.w3.org/2000/svg" xml:space="preserve" width="100%" height="100%" version="1.0" shape-rendering="geometricPrecision" text-rendering="geometricPrecision" image-rendering="optimizeQuality" fill-rule="evenodd" clip-rule="evenodd"
viewBox="0 0 5894 3238"
 xmlns:xlink="http://www.w3.org/1999/xlink">
 <g id="Layer_x0020_1">
  <metadata id="CorelCorpID_0Corel-Layer"/>
  <path fill="#86776F" d="M5596 2251c-52,-235 -99,-304 -226,-491 -165,-240 -961,-627 -1247,-748 -402,-170 -1154,-234 -1608,-244 -422,-9 -2124,-71 -2304,-514 -39,-95 -87,-176 -125,-254l-86 0c39,89 96,181 141,291 180,443 1883,506 2304,514 455,10 1206,74 1609,244 286,121 1101,491 1271,728 125,174 205,252 252,474l19 0z"/>
  <g id="_804834104032">
   <path fill="#A7D4AC" d="M1641 726c341,-136 650,-349 1057,-399 911,-111 1852,238 1852,238 -24,51 -878,-161 -1437,-117 -236,19 -385,46 -570,88 -204,45 -450,107 -902,190z"/>
   <path fill="none" stroke="#839986" stroke-width="6.94488" d="M4550 565c-165,-7 -969,-196 -1143,-201 -52,-1 -60,-19 -327,10 -32,3 -466,8 -788,143 -30,12 -128,69 -298,100 -68,13 -191,63 -283,80 -12,2 -81,30 -70,29"/>
  </g>
  <text x="1750" y="2188"  fill="#ffffff" font-weight="normal" font-size="472.22px" font-family="Berlin Sans FB">Licurici/Fieflies</text>
  <g id="_804834117280">
   <path fill="#A7D4AC" d="M5889 3238c-64,-214 -332,-643 -306,-975 1,-9 2,-9 6,-16 185,157 250,475 300,971 2,17 0,5 0,20z"/>
   <path fill="none" stroke="#839986" stroke-width="10.4134" d="M5589 2247c1,2 62,213 90,274 17,36 193,626 210,697"/>
  </g>
  <g id="_804834122112">
   <path fill="#A7D4AC" d="M5063 1085c-12,-2 -157,46 -175,104 -14,50 28,104 55,112 108,36 195,77 310,35 67,-23 169,-126 175,-160 49,-257 -326,-338 -507,-360 -169,-20 -647,117 -659,254 40,-14 119,-23 231,-66 173,-68 330,-102 542,-60 97,19 239,49 211,212 -14,79 -154,75 -230,66 -56,-7 30,-134 47,-137z"/>
   <path fill="none" stroke="#839986" stroke-width="10.4134" d="M4266 1070c-12,-44 201,-121 225,-125 156,-25 137,-78 331,-74 185,3 222,22 392,79 78,26 131,63 120,160 -1,4 -1,13 -10,58 -6,30 -18,78 -94,108 -98,37 -174,34 -240,-13 -54,-39 -40,-63 -9,-111 15,-24 65,-39 73,-65"/>
  </g>
  <g id="_804834097120">
   <g>
    <path fill="#A7D4AC" d="M2176 983c154,171 374,260 508,324 309,147 492,157 529,162 251,35 1068,105 1361,27 37,-10 -254,-22 -461,-59 -137,-24 -266,-44 -305,-51 -332,-61 -649,-124 -937,-272 -189,-98 -596,-174 -749,-316 -8,-7 -11,112 54,185z"/>
    <path fill="none" stroke="#839986" stroke-width="6.94094" d="M2122 798c11,13 -6,33 54,102 82,93 89,96 213,153 91,42 322,146 409,171 18,5 0,0 159,51 143,46 719,205 875,201 184,-6 325,34 489,20 6,-1 233,4 238,4"/>
   </g>
   <g class="firefly1">
    <path fill="#C6CE67" fill-opacity="0.368627" d="M3966 1341c63,3 113,56 110,119 0,2 0,3 0,4l-229 -9c0,-1 0,-3 0,-4 3,-63 56,-113 119,-110z"/>
    <path fill="#C6CE67" fill-opacity="0.368627" d="M3961 1378c43,2 77,39 75,82 0,1 0,2 0,3l-157 -7c0,0 0,-1 0,-2 2,-44 39,-77 82,-76z"/>
    <path fill="#C6CE67" fill-opacity="0.368627" d="M3958 1417c22,1 39,20 38,42 0,1 0,1 0,2l-80 -4c0,0 0,-1 0,-1 1,-22 20,-40 42,-39z"/>
   </g>
  </g>
  <g id="_804665621344" class="firefly3">
   <path fill="#C6CE67" fill-opacity="0.368627" d="M1479 581c63,4 111,59 106,122 0,2 0,3 0,4l-229 -16c0,-2 0,-3 1,-5 4,-63 59,-110 122,-105z"/>
   <path fill="#C6CE67" fill-opacity="0.368627" d="M1473 618c43,3 76,40 73,84 0,1 -1,2 -1,3l-156 -12c0,-1 0,-2 0,-3 3,-43 41,-76 84,-72z"/>
   <path fill="#C6CE67" fill-opacity="0.368627" d="M1469 657c22,1 38,20 37,43 0,0 0,0 0,1l-80 -6c0,0 0,-1 0,-1 1,-23 20,-39 43,-37z"/>
  </g>
  <g id="_804665616896">
   <g>
    <path fill="#A7D4AC" d="M5577 2251c-172,45 -342,313 -394,368 -18,19 -98,96 -101,109 151,-65 466,-307 495,-477z"/>
    <path fill="none" stroke="#839986" stroke-width="10.4134" d="M5577 2251c-11,-6 -133,145 -259,267 -85,84 -186,166 -221,203"/>
   </g>
   <g class="firefly2">
    <path fill="#C6CE67" fill-opacity="0.368627" d="M5338 2324c47,-43 119,-41 162,6 1,1 2,2 3,3l-167 156c-1,-1 -2,-2 -3,-3 -43,-47 -41,-119 5,-162z"/>
    <path fill="#C6CE67" fill-opacity="0.368627" d="M5361 2354c32,-30 82,-28 111,4 1,0 2,1 2,2l-115 107c0,-1 -1,-2 -2,-2 -29,-32 -27,-82 4,-111z"/>
    <path fill="#C6CE67" fill-opacity="0.368627" d="M5387 2383c16,-15 42,-14 57,2 0,1 0,1 1,1l-59 55c0,0 -1,-1 -1,-1 -15,-16 -14,-42 2,-57z"/>
   </g>
  </g>
 </g>
</svg>
