<?xml version="1.0" encoding="UTF-8"?>
<!DOCTYPE svg PUBLIC "-//W3C//DTD SVG 1.0//EN" "http://www.w3.org/TR/2001/REC-SVG-20010904/DTD/svg10.dtd">
<!-- Creator: CorelDRAW X8 -->
<svg xmlns="http://www.w3.org/2000/svg" xml:space="preserve" width="100%" height="100%" version="1.0" shape-rendering="geometricPrecision" text-rendering="geometricPrecision" image-rendering="optimizeQuality" fill-rule="evenodd" clip-rule="evenodd"
viewBox="0 0 5823 1337"
 xmlns:xlink="http://www.w3.org/1999/xlink">
 <g id="Layer_x0020_1">
  <metadata id="CorelCorpID_0Corel-Layer"/>
  <path fill="#86776F" stroke="#86776F" stroke-width="10.4134" d="M5 450c106,-1 806,-39 921,-36 981,26 2272,253 3180,398 64,10 370,66 388,82l0 8c-21,-2 -208,-25 -374,-55 -864,-159 -2187,-373 -3193,-386 -119,-1 -848,37 -922,36l0 -47z"/>
  <g id="_804662081120">
   <path fill="#A1C4A5" d="M4483 898c117,-94 217,-222 362,-279 325,-126 686,-29 686,-29 -6,27 -328,-10 -528,56 -85,27 -138,53 -203,88 -71,38 -158,88 -317,164z"/>
   <path fill="none" stroke="#839986" stroke-width="6.94094" d="M5531 590c-60,10 -363,-20 -426,-8 -19,3 -23,-5 -119,30 -11,4 -168,41 -278,132 -10,9 -43,44 -103,73 -24,12 -66,46 -98,61 -4,2 -28,22 -24,20"/>
  </g>
  <path fill="#A1C4A5" d="M4553 1032c105,106 229,140 305,168 178,65 270,45 288,43 130,-12 544,-84 675,-187 17,-13 -129,22 -237,25 -72,3 -138,7 -159,8 -174,4 -341,5 -508,-64 -110,-45 -323,-41 -423,-125 -5,-4 14,87 59,132z"/>
  <path fill="none" stroke="#839986" stroke-width="6.94094" d="M4494 900c8,8 3,26 45,69 56,58 59,59 131,84 52,18 183,62 230,67 10,1 0,0 87,14 78,13 389,46 465,19 90,-32 166,-23 245,-59 2,-1 115,-32 117,-33"/>
  <g id="_804662089632">
   <path fill="#A1C4A5" d="M3051 1066c-11,-6 -96,-132 -74,-189 19,-49 85,-65 112,-55 107,38 201,58 267,162 38,59 56,203 40,234 -119,233 -465,67 -621,-26 -147,-88 -441,-488 -367,-604 24,35 81,90 143,194 95,159 198,282 391,378 90,45 220,108 297,-38 38,-71 -75,-154 -141,-193 -49,-29 -58,124 -47,137z"/>
   <path fill="none" stroke="#839986" stroke-width="10.4134" d="M2408 588c-36,27 85,218 102,236 108,115 61,146 216,262 149,110 190,118 358,177 79,27 143,30 193,-54 2,-3 8,-10 28,-52 14,-27 34,-72 -8,-142 -55,-90 -116,-134 -198,-137 -67,-2 -70,26 -75,82 -3,28 27,71 18,96"/>
  </g>
  <g id="_804662099072">
   <path fill="#A1C4A5" d="M1311 435c267,-139 517,-354 826,-408 691,-122 1367,211 1367,211 -22,51 -644,-148 -1066,-97 -179,21 -293,51 -435,94 -157,47 -346,112 -692,200z"/>
   <path fill="none" stroke="#839986" stroke-width="6.94094" d="M3504 238c-123,-4 -709,-182 -839,-184 -39,-1 -43,-18 -246,14 -24,4 -350,14 -603,152 -23,12 -101,69 -231,103 -52,13 -149,64 -219,82 -9,2 -63,31 -55,30"/>
  </g>
  <g id="_804662112672">
   <path fill="#FFED00" fill-opacity="0.368627" d="M2012 378c63,9 107,66 99,129 0,1 0,3 -1,4l-227 -30c0,-1 1,-3 1,-4 8,-63 65,-107 128,-99z"/>
   <path fill="#FFED00" fill-opacity="0.368627" d="M2004 415c43,6 73,45 68,88 -1,1 -1,2 -1,3l-156 -20c0,-1 1,-2 1,-3 5,-43 45,-74 88,-68z"/>
   <path fill="#FFED00" fill-opacity="0.368627" d="M1997 454c22,3 38,23 35,45 0,0 0,1 0,1l-80 -10c0,-1 0,-1 0,-2 3,-22 23,-37 45,-34z"/>
  </g>
  <g id="_804662078592">
   <path fill="#DEDE3B" fill-opacity="0.368627" stroke="#DEDE3B" stroke-width="3" stroke-opacity="0.368627" d="M3659 891c-63,-11 -104,-70 -93,-132 0,-2 0,-3 1,-4l225 39c0,1 0,3 -1,4 -10,63 -70,104 -132,93z"/>
   <path fill="#DEDE3B" fill-opacity="0.368627" stroke="#DEDE3B" stroke-width="3" stroke-opacity="0.368627" d="M3669 855c-43,-7 -72,-48 -64,-91 0,-1 0,-2 0,-3l155 27c0,1 0,2 0,3 -8,43 -48,72 -91,64z"/>
   <path fill="#DEDE3B" fill-opacity="0.368627" stroke="#DEDE3B" stroke-width="3" stroke-opacity="0.368627" d="M3677 817c-22,-4 -36,-25 -33,-47 0,0 1,-1 1,-1l79 14c0,0 0,1 -1,1 -3,22 -24,37 -46,33z"/>
  </g>
 </g>
</svg>
