<?xml version="1.0" encoding="UTF-8"?>
<!DOCTYPE svg PUBLIC "-//W3C//DTD SVG 1.1//EN" "http://www.w3.org/Graphics/SVG/1.1/DTD/svg11.dtd">
<!-- Creator: CorelDRAW X8 -->
<svg xmlns="http://www.w3.org/2000/svg" xml:space="preserve" width="100%" height="100%" version="1.1" style="shape-rendering:geometricPrecision; text-rendering:geometricPrecision; image-rendering:optimizeQuality; fill-rule:evenodd; clip-rule:evenodd"
viewBox="0 0 5893 3244"
 xmlns:xlink="http://www.w3.org/1999/xlink">
 <defs>
  <style type="text/css">
   <![CDATA[
    .str0 {stroke:#2B2A29;stroke-width:10.4134}
    .str1 {stroke:#2B2A29;stroke-width:6.94094}
    .fil1 {fill:none}
    .fil0 {fill:#2B2A29}
    .fnt0 {font-weight:normal;font-size:472.22px;font-family:'Berlin Sans FB'}
   ]]>
  </style>
 </defs>
 <g id="Layer_x0020_1">
  <metadata id="CorelCorpID_0Corel-Layer"/>
  <path class="fil0" d="M5596 2251c-52,-235 -99,-304 -226,-491 -165,-240 -961,-627 -1247,-748 -402,-170 -1154,-234 -1608,-244 -422,-9 -2124,-71 -2304,-514 -39,-95 -87,-176 -125,-254l-86 0c39,89 96,181 141,291 180,443 1883,506 2304,514 455,10 1206,74 1609,244 286,121 1101,491 1271,728 125,174 205,252 252,474l19 0z"/>
  <path class="fil1 str0" d="M5067 1085c-12,-2 -157,46 -174,104 -15,50 27,104 54,112 108,36 195,77 311,35 66,-23 168,-126 175,-160 48,-257 -327,-338 -508,-360 -169,-20 -647,117 -659,254 40,-14 119,-23 231,-66 174,-68 330,-102 542,-60 98,19 240,49 211,212 -14,79 -154,75 -230,66 -56,-7 30,-134 47,-137zm-801 -15c-12,-44 201,-121 225,-125 156,-25 137,-78 331,-74 185,3 222,22 392,79 78,26 131,63 120,160 -1,4 -1,13 -10,58 -6,30 -18,78 -94,108 -98,37 -174,34 -240,-13 -54,-39 -40,-63 -9,-111 15,-24 65,-39 73,-65"/>
  <g id="_1041304032720">
   <path class="fil1 str0" d="M1641 726c341,-136 650,-349 1057,-399 911,-111 1852,238 1852,238 -24,51 -878,-161 -1437,-117 -236,19 -385,46 -570,88 -204,45 -450,107 -902,190z"/>
   <path class="fil1 str1" d="M4550 565c-165,-7 -969,-196 -1143,-201 -52,-1 -60,-19 -327,10 -32,3 -466,8 -788,143 -30,12 -128,69 -298,100 -68,13 -191,63 -283,80 -12,2 -81,30 -70,29"/>
  </g>
  <path class="fil1 str1" d="M2122 798c11,13 -6,33 54,102 82,93 89,96 213,153 91,42 322,146 409,171 18,5 0,0 159,51 143,46 719,205 875,201 184,-6 325,34 489,20 6,-1 233,4 238,4m-2383 -517c154,171 374,260 508,324 309,147 492,157 529,162 251,35 1068,105 1361,27 37,-10 -254,-22 -461,-59 -137,-24 -266,-44 -305,-51 -332,-61 -649,-124 -937,-272 -189,-98 -596,-174 -749,-316 -8,-7 -11,112 54,185z"/>
  <text x="1750" y="2188"  class="fil0 fnt0">Licurici la râu</text>
  <path class="fil1 str0" d="M5886 3242c-63,-214 -331,-642 -305,-975 1,-9 2,-9 6,-16 185,157 250,475 300,971 2,18 0,5 -1,20zm-299 -991c1,3 62,213 90,274 17,36 193,626 210,697"/>
  <path class="fil1 str0" d="M5595 2257c-6,4 -4,3 0,0z"/>
  <path class="fil1 str0" d="M5577 2251c-172,45 -342,313 -394,368 -18,19 -98,96 -101,109 151,-65 466,-307 495,-477zm0 0c-11,-6 -133,145 -259,267 -85,84 -186,166 -221,203"/>
 </g>
</svg>
