<?xml version="1.0" encoding="UTF-8"?>
<!DOCTYPE svg PUBLIC "-//W3C//DTD SVG 1.1//EN" "http://www.w3.org/Graphics/SVG/1.1/DTD/svg11.dtd">
<!-- Creator: CorelDRAW X8 -->
<svg xmlns="http://www.w3.org/2000/svg" xml:space="preserve" width="100%" height="100%" version="1.1" style="shape-rendering:geometricPrecision; text-rendering:geometricPrecision; image-rendering:optimizeQuality; fill-rule:evenodd; clip-rule:evenodd"
viewBox="0 0 5830 1458"
 xmlns:xlink="http://www.w3.org/1999/xlink">
 <defs>
  <style type="text/css">
   <![CDATA[
    .str0 {stroke:#2B2A29;stroke-width:10.4134}
    .str1 {stroke:#2B2A29;stroke-width:6.94094}
    .fil1 {fill:none}
    .fil0 {fill:#2B2A29}
   ]]>
  </style>
 </defs>
 <g id="Layer_x0020_1">
  <metadata id="CorelCorpID_0Corel-Layer"/>
  <path class="fil0 str0" d="M5825 581c-109,0 -871,-134 -997,-124 -738,62 -1681,392 -2499,434 -362,19 -680,-50 -1010,-32 -51,2 -133,14 -156,14 -86,0 12,4 -334,20l-3 -22c184,-12 44,-21 439,-55 142,-13 293,16 451,19 313,5 656,32 998,-20 699,-105 1442,-404 2058,-405 190,0 972,106 1053,99l0 72z"/>
  <g id="_1041276960896">
   <path class="fil1 str0" d="M4569 488c-232,192 -431,454 -721,573 -651,264 -1381,82 -1381,82 11,-55 661,8 1062,-130 170,-59 276,-112 406,-184 143,-80 315,-182 634,-341z"/>
   <path class="fil1 str1" d="M2467 1143c121,-22 731,28 859,2 38,-7 46,9 237,-65 23,-9 339,-88 557,-276 20,-17 84,-89 205,-149 48,-24 131,-95 196,-127 8,-4 55,-44 48,-40"/>
  </g>
  <path class="fil1 str1" d="M5064 429c-14,-11 -1,-34 -75,-88 -100,-73 -107,-74 -242,-103 -98,-21 -345,-72 -436,-77 -18,-1 0,0 -166,-15 -149,-14 -747,-43 -898,-4 -178,45 -324,37 -482,87 -5,2 -228,47 -232,48m2438 -17c-188,-133 -422,-172 -566,-205 -334,-76 -515,-46 -552,-43 -253,21 -1065,132 -1335,272 -34,17 254,-34 463,-43 139,-7 269,-16 310,-17 336,-13 660,-22 973,60 206,54 620,40 800,145 9,5 -13,-112 -93,-169z"/>
  <path class="fil1 str0" d="M3 1453c199,-123 522,-466 810,-568 9,-3 10,-1 17,0 -16,153 -305,292 -808,562 -15,8 -5,1 -19,6zm827 -568c-1,2 -180,130 -228,177 -28,28 -518,345 -580,385"/>
  <path class="fil1 str0" d="M819 888c-7,-2 -5,-2 0,0z"/>
  <path class="fil1 str0" d="M837 871c-148,-78 -461,-49 -535,-65 -25,-6 -137,-14 -148,-7 146,73 534,159 683,72zm0 0c-3,-11 -197,-9 -371,-26 -119,-12 -247,-37 -297,-39"/>
  <path class="fil1 str0" d="M2321 844c-188,-225 -709,-292 -828,-332 -40,-14 -258,-106 -278,-101 120,107 380,304 648,362 205,45 352,66 458,71zm0 0c1,-20 -305,-116 -582,-200 -186,-56 -259,-90 -515,-225"/>
 </g>
</svg>
