<?xml version="1.0" encoding="UTF-8"?>
<!DOCTYPE svg PUBLIC "-//W3C//DTD SVG 1.0//EN" "http://www.w3.org/TR/2001/REC-SVG-20010904/DTD/svg10.dtd">
<!-- Creator: CorelDRAW X8 -->
<svg xmlns="http://www.w3.org/2000/svg" xml:space="preserve" width="100%" height="100%" version="1.0" shape-rendering="geometricPrecision" text-rendering="geometricPrecision" image-rendering="optimizeQuality" fill-rule="evenodd" clip-rule="evenodd"
viewBox="0 0 5827 1450"
 xmlns:xlink="http://www.w3.org/1999/xlink">
 <g id="Layer_x0020_1">
  <metadata id="CorelCorpID_0Corel-Layer"/>
  <path fill="#86776F" stroke="#86776F" stroke-width="10.4134" d="M5822 577c-108,0 -871,-134 -997,-123 -737,62 -1681,392 -2499,434 -362,19 -679,-51 -1010,-33 -51,3 -133,15 -156,15 -86,0 12,3 -333,20l-3 -23c183,-12 43,-20 438,-55 142,-12 293,17 451,19 313,6 656,32 998,-19 699,-106 1443,-404 2058,-405 190,0 972,105 1053,99l0 71z"/>
  <g id="_804877117344">
   <path fill="#A1C4A5" d="M4566 484c-232,192 -431,455 -721,573 -650,265 -1381,82 -1381,82 11,-54 661,9 1063,-130 169,-58 275,-111 405,-184 143,-79 315,-182 634,-341z"/>
   <path fill="none" stroke="#839986" stroke-width="6.94094" d="M2464 1139c121,-22 731,28 859,3 38,-8 46,8 238,-66 22,-8 338,-87 556,-275 21,-17 85,-90 205,-150 48,-24 132,-94 196,-126 9,-4 56,-44 48,-41"/>
  </g>
  <g id="_804877118880">
   <path fill="#A1C4A5" d="M0 1450c199,-123 522,-466 810,-568 9,-4 10,-1 17,0 -16,152 -304,292 -808,562 -15,8 -4,1 -19,6z"/>
   <path fill="none" stroke="#839986" stroke-width="10.4134" d="M827 882c-1,2 -180,130 -227,176 -29,29 -519,345 -581,386"/>
  </g>
  <g id="_804877119360">
   <path fill="#A1C4A5" d="M834 868c-147,-78 -460,-49 -535,-66 -25,-5 -137,-13 -148,-7 147,74 534,160 683,73z"/>
   <path fill="none" stroke="#839986" stroke-width="10.4134" d="M834 868c-2,-12 -197,-9 -371,-27 -119,-11 -247,-36 -297,-39"/>
  </g>
  <g id="_804877119232">
   <path fill="#A1C4A5" d="M2318 840c-188,-224 -708,-291 -828,-332 -39,-13 -257,-106 -278,-100 121,107 380,304 649,362 204,45 352,66 457,70z"/>
   <path fill="none" stroke="#839986" stroke-width="10.4134" d="M2318 840c1,-19 -304,-116 -582,-200 -186,-56 -259,-89 -515,-224"/>
  </g>
  <g id="_804877120864" class="firefly1">
   <path fill="#C6CE67" fill-opacity="0.368627" d="M1308 695c64,-1 116,48 118,112 0,1 0,2 0,4l-229 7c0,-2 0,-3 0,-5 -2,-63 48,-116 111,-118z"/>
   <path fill="#C6CE67" fill-opacity="0.368627" d="M1306 733c43,-1 79,33 81,76 0,1 0,2 0,3l-157 5c0,-1 0,-2 0,-3 -2,-44 32,-80 76,-81z"/>
   <path fill="#C6CE67" fill-opacity="0.368627" d="M1306 772c22,-1 40,17 41,39 0,1 0,1 0,2l-80 2c0,-1 0,-1 0,-2 -1,-22 16,-40 39,-41z"/>
  </g>
  <g id="_804877120704">
   <path fill="#A1C4A5" d="M4968 256c-188,-132 -422,-172 -566,-204 -334,-77 -515,-47 -552,-43 -253,21 -1065,132 -1335,271 -33,18 254,-33 464,-43 139,-6 269,-15 309,-17 336,-13 660,-21 973,61 206,54 620,39 800,144 10,5 -13,-112 -93,-169z"/>
   <path fill="none" stroke="#839986" stroke-width="6.94094" d="M5061 425c-13,-11 -1,-34 -75,-88 -100,-72 -107,-74 -241,-102 -98,-21 -346,-73 -437,-78 -18,-1 0,0 -165,-15 -150,-13 -747,-42 -898,-4 -179,45 -325,38 -482,87 -6,2 -229,47 -233,48"/>
   <g class="firefly2">
    <path fill="#C6CE67" fill-opacity="0.368627" d="M3822 330c-63,-7 -108,-64 -101,-127 0,-1 1,-3 1,-4l227 26c0,1 0,3 0,4 -7,63 -64,108 -127,101z"/>
    <path fill="#C6CE67" fill-opacity="0.368627" d="M3830 293c-43,-5 -74,-44 -69,-87 0,-1 0,-2 0,-3l156 18c0,1 0,2 0,3 -5,43 -44,74 -87,69z"/>
    <path fill="#C6CE67" fill-opacity="0.368627" d="M3836 254c-22,-2 -38,-22 -36,-44 0,0 0,-1 1,-1l79 9c0,0 0,1 0,1 -2,22 -22,38 -44,35z"/>
   </g>
   <g id="_804877122464" class="firefly3">
    <path fill="#DEDE3B" fill-opacity="0.368627" stroke="#DEDE3B" stroke-width="3" stroke-opacity="0.368627" d="M3331 336c-64,3 -117,-46 -120,-109 0,-2 0,-3 0,-4l228 -11c1,1 1,3 1,4 3,63 -46,117 -109,120z"/>
    <path fill="#DEDE3B" fill-opacity="0.368627" stroke="#DEDE3B" stroke-width="3" stroke-opacity="0.368627" d="M3332 298c-43,2 -80,-31 -82,-74 0,-1 0,-2 0,-3l157 -8c0,1 0,2 0,3 2,44 -31,80 -75,82z"/>
    <path fill="#DEDE3B" fill-opacity="0.368627" stroke="#DEDE3B" stroke-width="3" stroke-opacity="0.368627" d="M3332 259c-22,1 -41,-16 -42,-38 0,0 0,-1 0,-1l80 -4c0,0 0,1 0,1 1,22 -16,41 -38,42z"/>
   </g>
  </g>

 </g>
</svg>
