<?xml version="1.0" encoding="UTF-8" standalone="no"?>
<!-- Creator: CorelDRAW X8 -->

<svg
   xmlns:dc="http://purl.org/dc/elements/1.1/"
   xmlns:cc="http://creativecommons.org/ns#"
   xmlns:rdf="http://www.w3.org/1999/02/22-rdf-syntax-ns#"
   xmlns:svg="http://www.w3.org/2000/svg"
   xmlns="http://www.w3.org/2000/svg"
   xmlns:sodipodi="http://sodipodi.sourceforge.net/DTD/sodipodi-0.dtd"
   xmlns:inkscape="http://www.inkscape.org/namespaces/inkscape"
   xml:space="preserve"
   width="100%"
   height="100%"
   version="1.0"
   shape-rendering="geometricPrecision"
   text-rendering="geometricPrecision"
   image-rendering="optimizeQuality"
   fill-rule="evenodd"
   clip-rule="evenodd"
   viewBox="0 0 5894 3238"
   id="svg3837"
   sodipodi:docname="branch1New.svg"
   inkscape:version="0.92.2 (5c3e80d, 2017-08-06)"><metadata
     id="metadata3843"><rdf:RDF><cc:Work
         rdf:about=""><dc:format>image/svg+xml</dc:format><dc:type
           rdf:resource="http://purl.org/dc/dcmitype/StillImage" /><dc:title></dc:title></cc:Work></rdf:RDF></metadata><defs
     id="defs3841" /><sodipodi:namedview
     pagecolor="#ffffff"
     bordercolor="#666666"
     borderopacity="1"
     objecttolerance="10"
     gridtolerance="10"
     guidetolerance="10"
     inkscape:pageopacity="0"
     inkscape:pageshadow="2"
     inkscape:window-width="1920"
     inkscape:window-height="1001"
     id="namedview3839"
     showgrid="false"
     inkscape:zoom="0.59"
     inkscape:cx="1509.6016"
     inkscape:cy="2280.3184"
     inkscape:window-x="-9"
     inkscape:window-y="-9"
     inkscape:window-maximized="1"
     inkscape:current-layer="svg3837" /><path
     style="fill:#86776f"
     inkscape:connector-curvature="0"
     id="path3780"
     d="M 5596,2251 C 5544,2016 5497,1947 5370,1760 5205,1520 4409,1133 4123,1012 3721,842 2969,778 2515,768 2093,759 391,697 211,254 172,159 124,78 86,0 H 0 c 39,89 96,181 141,291 180,443 1883,506 2304,514 455,10 1206,74 1609,244 286,121 1101,491 1271,728 125,174 205,252 252,474 z" /><g
     id="_804834104032"><path
       style="fill:#a7d4ac"
       inkscape:connector-curvature="0"
       id="path3782"
       d="m 1641,726 c 341,-136 650,-349 1057,-399 911,-111 1852,238 1852,238 -24,51 -878,-161 -1437,-117 -236,19 -385,46 -570,88 -204,45 -450,107 -902,190 z" /><path
       style="fill:none;stroke:#839986;stroke-width:6.94488001"
       inkscape:connector-curvature="0"
       id="path3784"
       d="m 4550,565 c -165,-7 -969,-196 -1143,-201 -52,-1 -60,-19 -327,10 -32,3 -466,8 -788,143 -30,12 -128,69 -298,100 -68,13 -191,63 -283,80 -12,2 -81,30 -70,29" /></g><text
     style="font-weight:normal;font-size:472.22000122px;font-family:'Berlin Sans FB';fill:#ffffff"
     id="text3787"
     font-size="472.22px"
     font-weight="normal"
     y="2188"
     x="2200">Licurici</text>
<g
     id="_804834117280"><path
       style="fill:#a7d4ac"
       inkscape:connector-curvature="0"
       id="path3789"
       d="m 5889,3238 c -64,-214 -332,-643 -306,-975 1,-9 2,-9 6,-16 185,157 250,475 300,971 2,17 0,5 0,20 z" /><path
       style="fill:none;stroke:#839986;stroke-width:10.4133997"
       inkscape:connector-curvature="0"
       id="path3791"
       d="m 5589,2247 c 1,2 62,213 90,274 17,36 193,626 210,697" /></g><g
     id="_804834122112"><path
       style="fill:#a7d4ac"
       inkscape:connector-curvature="0"
       id="path3794"
       d="m 5063,1085 c -12,-2 -157,46 -175,104 -14,50 28,104 55,112 108,36 195,77 310,35 67,-23 169,-126 175,-160 49,-257 -326,-338 -507,-360 -169,-20 -647,117 -659,254 40,-14 119,-23 231,-66 173,-68 330,-102 542,-60 97,19 239,49 211,212 -14,79 -154,75 -230,66 -56,-7 30,-134 47,-137 z" /><path
       style="fill:none;stroke:#839986;stroke-width:10.4133997"
       inkscape:connector-curvature="0"
       id="path3796"
       d="m 4266,1070 c -12,-44 201,-121 225,-125 156,-25 137,-78 331,-74 185,3 222,22 392,79 78,26 131,63 120,160 -1,4 -1,13 -10,58 -6,30 -18,78 -94,108 -98,37 -174,34 -240,-13 -54,-39 -40,-63 -9,-111 15,-24 65,-39 73,-65" /></g><g
     id="_804834097120"><g
       id="g3803"><path
         style="fill:#a7d4ac"
         inkscape:connector-curvature="0"
         id="path3799"
         d="m 2176,983 c 154,171 374,260 508,324 309,147 492,157 529,162 251,35 1068,105 1361,27 37,-10 -254,-22 -461,-59 -137,-24 -266,-44 -305,-51 -332,-61 -649,-124 -937,-272 -189,-98 -596,-174 -749,-316 -8,-7 -11,112 54,185 z" /><path
         style="fill:none;stroke:#839986;stroke-width:6.9409399"
         inkscape:connector-curvature="0"
         id="path3801"
         d="m 2122,798 c 11,13 -6,33 54,102 82,93 89,96 213,153 91,42 322,146 409,171 18,5 0,0 159,51 143,46 719,205 875,201 184,-6 325,34 489,20 6,-1 233,4 238,4" /></g><g
       id="g3811"
       class="firefly1"><path
         style="fill:#c6ce67;fill-opacity:0.36862703"
         inkscape:connector-curvature="0"
         id="path3805"
         d="m 3966,1341 c 63,3 113,56 110,119 0,2 0,3 0,4 l -229,-9 c 0,-1 0,-3 0,-4 3,-63 56,-113 119,-110 z" /><path
         style="fill:#c6ce67;fill-opacity:0.36862703"
         inkscape:connector-curvature="0"
         id="path3807"
         d="m 3961,1378 c 43,2 77,39 75,82 0,1 0,2 0,3 l -157,-7 c 0,0 0,-1 0,-2 2,-44 39,-77 82,-76 z" /><path
         style="fill:#c6ce67;fill-opacity:0.36862703"
         inkscape:connector-curvature="0"
         id="path3809"
         d="m 3958,1417 c 22,1 39,20 38,42 0,1 0,1 0,2 l -80,-4 c 0,0 0,-1 0,-1 1,-22 20,-40 42,-39 z" /></g></g><g
     class="firefly3"
     id="_804665621344"
     transform="rotate(2.8770189,1477.3909,634.90511)"><path
       style="fill:#c6ce67;fill-opacity:0.36862703"
       inkscape:connector-curvature="0"
       id="path3814"
       d="m 1479,581 c 63,4 111,59 106,122 0,2 0,3 0,4 l -229,-16 c 0,-2 0,-3 1,-5 4,-63 59,-110 122,-105 z" /><path
       style="fill:#c6ce67;fill-opacity:0.36862703"
       inkscape:connector-curvature="0"
       id="path3816"
       d="m 1473,618 c 43,3 76,40 73,84 0,1 -1,2 -1,3 l -156,-12 c 0,-1 0,-2 0,-3 3,-43 41,-76 84,-72 z" /><path
       style="fill:#c6ce67;fill-opacity:0.36862703"
       inkscape:connector-curvature="0"
       id="path3818"
       d="m 1469,657 c 22,1 38,20 37,43 0,0 0,0 0,1 l -80,-6 c 0,0 0,-1 0,-1 1,-23 20,-39 43,-37 z" /></g><g
     id="_804665616896"><g
       id="g3825"><path
         style="fill:#a7d4ac"
         inkscape:connector-curvature="0"
         id="path3821"
         d="m 5577,2251 c -172,45 -342,313 -394,368 -18,19 -98,96 -101,109 151,-65 466,-307 495,-477 z" /><path
         style="fill:none;stroke:#839986;stroke-width:10.4133997"
         inkscape:connector-curvature="0"
         id="path3823"
         d="m 5577,2251 c -11,-6 -133,145 -259,267 -85,84 -186,166 -221,203" /></g><g
       id="g3833"
       class="firefly2"><path
         style="fill:#c6ce67;fill-opacity:0.36862703"
         inkscape:connector-curvature="0"
         id="path3827"
         d="m 5338,2324 c 47,-43 119,-41 162,6 1,1 2,2 3,3 l -167,156 c -1,-1 -2,-2 -3,-3 -43,-47 -41,-119 5,-162 z" /><path
         style="fill:#c6ce67;fill-opacity:0.36862703"
         inkscape:connector-curvature="0"
         id="path3829"
         d="m 5361,2354 c 32,-30 82,-28 111,4 1,0 2,1 2,2 l -115,107 c 0,-1 -1,-2 -2,-2 -29,-32 -27,-82 4,-111 z" /><path
         style="fill:#c6ce67;fill-opacity:0.36862703"
         inkscape:connector-curvature="0"
         id="path3831"
         d="m 5387,2383 c 16,-15 42,-14 57,2 0,1 0,1 1,1 l -59,55 c 0,0 -1,-1 -1,-1 -15,-16 -14,-42 2,-57 z" /></g></g></svg>