<?xml version="1.0" encoding="UTF-8"?>
<!DOCTYPE svg PUBLIC "-//W3C//DTD SVG 1.1//EN" "http://www.w3.org/Graphics/SVG/1.1/DTD/svg11.dtd">
<!-- Creator: CorelDRAW X8 -->
<svg xmlns="http://www.w3.org/2000/svg" xml:space="preserve" width="100%" height="100%" version="1.1" style="shape-rendering:geometricPrecision; text-rendering:geometricPrecision; image-rendering:optimizeQuality; fill-rule:evenodd; clip-rule:evenodd"
viewBox="0 0 5920 2895"
 xmlns:xlink="http://www.w3.org/1999/xlink">
 <defs>
  <style type="text/css">
   <![CDATA[
    .str0 {stroke:#2B2A29;stroke-width:10.4134}
    .str1 {stroke:#2B2A29;stroke-width:6.94094}
    .fil1 {fill:none}
    .fil0 {fill:#2B2A29}
   ]]>
  </style>
 </defs>
 <g id="Layer_x0020_1">
  <metadata id="CorelCorpID_0Corel-Layer"/>
  <path class="fil0 str0" d="M5 7c59,21 586,372 682,405 550,188 1331,249 1932,476 266,101 472,251 715,342 38,15 100,32 117,39 61,27 -8,-6 246,91l-5 17c-136,-49 -38,1 -333,-99 -106,-36 -205,-104 -318,-156 -222,-102 -461,-230 -722,-300 -536,-145 -1164,-165 -1607,-359 -127,-55 -597,-340 -707,-395l0 -61z"/>
  <g id="_1041267700192">
   <path class="fil1 str0" d="M883 472c227,-65 453,-191 698,-184 551,15 1018,376 1018,376 -25,36 -472,-214 -804,-241 -140,-12 -233,-7 -349,4 -128,12 -284,32 -563,45z"/>
   <path class="fil1 str1" d="M2599 664c-93,-22 -516,-250 -616,-272 -30,-7 -30,-21 -191,-28 -19,-1 -271,-44 -487,22 -20,6 -89,38 -194,43 -42,2 -124,26 -181,29 -7,0 -54,14 -47,14"/>
  </g>
  <path class="fil1 str1" d="M509 358c6,12 -10,25 26,87 49,84 53,87 141,150 64,46 225,161 289,193 13,7 0,0 114,63 104,57 523,266 644,286 142,24 245,76 374,90 4,0 178,38 182,39m-1757 -757c93,154 249,257 342,326 216,160 356,195 383,204 189,65 807,242 1045,226 29,-2 -193,-56 -347,-115 -102,-39 -198,-74 -227,-85 -246,-97 -481,-193 -680,-351 -131,-103 -433,-223 -529,-356 -5,-6 -26,85 13,151z"/>
  <path class="fil1 str0" d="M4467 1218c-182,26 -522,170 -761,153 -7,-1 -7,-2 -12,-6 59,-104 311,-113 757,-148 14,-1 4,0 16,1zm-773 147c1,-1 170,-36 219,-55 29,-11 481,-84 538,-93"/>
  <path class="fil1 str0" d="M3703 1367c4,4 3,3 0,0z"/>
  <path class="fil1 str0" d="M3684 1373c82,103 316,181 364,216 16,12 94,53 104,52 -82,-99 -333,-283 -468,-268zm0 0c-1,9 139,69 259,136 81,46 166,104 201,122"/>
  <path class="fil1 str0" d="M2610 925c64,221 417,433 490,500 24,22 152,157 168,160 -53,-115 -177,-339 -352,-465 -133,-97 -232,-159 -306,-195zm0 0c-7,14 182,179 355,327 116,99 158,146 299,324"/>
  <path class="fil1 str0" d="M994 1847c56,-27 114,114 452,-32 610,-263 561,303 1015,-69 259,-212 517,-118 758,44 248,167 530,-327 936,-55 180,120 539,151 743,75 8,-3 28,-20 33,-23"/>
  <path class="fil1 str0" d="M1240 2095c-3,-78 40,126 264,91 404,-65 195,-205 672,-43 684,233 455,-339 1302,-55 535,179 270,-355 1159,116 130,69 316,-188 738,28 62,32 113,28 163,-23"/>
  <path class="fil1 str0" d="M1483 2868c229,116 130,-264 600,-57 257,113 441,-411 820,6 119,130 377,-301 905,-151 329,94 188,230 676,10 453,-204 644,324 881,44 155,-184 287,197 443,71 26,-21 39,-30 63,-54"/>
  <path class="fil1 str0" d="M1390 2442c195,257 833,-473 811,34 -10,244 645,-384 909,-60 239,294 421,-412 938,14 298,245 724,-394 991,-55 253,321 367,141 881,98"/>
 </g>
</svg>
