<?xml version="1.0" encoding="UTF-8"?>
<!DOCTYPE svg PUBLIC "-//W3C//DTD SVG 1.0//EN" "http://www.w3.org/TR/2001/REC-SVG-20010904/DTD/svg10.dtd">
<!-- Creator: CorelDRAW X8 -->
<svg xmlns="http://www.w3.org/2000/svg" xml:space="preserve" width="100%" height="100%" version="1.0" shape-rendering="geometricPrecision" text-rendering="geometricPrecision" image-rendering="optimizeQuality" fill-rule="evenodd" clip-rule="evenodd"
viewBox="0 0 5920 3172"
 xmlns:xlink="http://www.w3.org/1999/xlink">
 <g id="Layer_x0020_1">
  <metadata id="CorelCorpID_0Corel-Layer"/>
  <path fill="#066583" d="M4896 2264l215 -486c-5,4 -26,21 -34,24 -203,75 -562,45 -743,-76 -406,-271 -687,222 -935,56 -242,-163 -499,-257 -758,-44 -455,372 -406,-195 -1015,69 -338,146 -397,5 -453,31l139 488 3584 -62z"/>
  <path fill="#0C5D81" d="M5450 2585l88 -376c-50,51 -101,55 -163,23 -422,-216 -608,41 -738,-28 -889,-471 -624,63 -1159,-116 -847,-284 -618,288 -1302,55 -477,-162 -268,-22 -672,43 -224,35 -267,-169 -264,-91l135 569 4075 -79z"/>
  <path fill="#86776F" stroke="#86776F" stroke-width="10.4134" d="M5 7c59,21 586,372 682,405 550,188 1331,249 1932,476 266,101 472,251 715,342 38,15 100,32 117,39 61,27 -8,-6 246,91l-5 17c-136,-49 -38,1 -333,-99 -106,-36 -205,-104 -318,-156 -222,-102 -461,-230 -722,-300 -536,-145 -1164,-165 -1607,-359 -127,-55 -597,-340 -707,-395l0 -61z"/>
  <g id="_804821228336">
   <path fill="#A1C4A5" d="M883 472c227,-65 453,-191 698,-184 551,15 1018,376 1018,376 -25,36 -472,-214 -804,-241 -140,-12 -233,-7 -349,4 -128,12 -284,32 -563,45z"/>
   <path fill="none" stroke="#839986" stroke-width="6.94094" d="M2599 664c-93,-22 -516,-250 -616,-272 -30,-7 -30,-21 -191,-28 -19,-1 -271,-44 -487,22 -20,6 -89,38 -194,43 -42,2 -124,26 -181,29 -7,0 -54,14 -47,14"/>
  </g>
  <path fill="#0F7597" d="M5796 3018l124 -545c-514,43 -628,223 -881,-98 -267,-339 -693,300 -991,55 -517,-426 -699,280 -938,-14 -264,-324 -919,304 -909,60 22,-507 -616,223 -811,-34l164 551 4242 25z"/>
  <path fill="#297991" d="M5800 3168l71 -431c-24,24 -37,33 -63,54 -156,126 -288,-255 -443,-71 -237,280 -428,-248 -881,-44 -488,220 -347,84 -676,-10 -528,-150 -786,281 -905,151 -379,-417 -563,107 -820,-6 -470,-207 -371,173 -600,57l71 304 4246 -4z"/>
  <g id="_804821215888">
   <path fill="#A1C4A5" d="M3684 1373c82,103 316,181 364,216 16,12 94,53 104,52 -82,-99 -333,-283 -468,-268z"/>
   <path fill="none" stroke="#839986" stroke-width="10.4134" d="M3684 1373c-1,9 139,69 259,136 81,46 166,104 201,122"/>
  </g>
  <g id="_804821217296">
   <path fill="#A1C4A5" d="M2610 925c64,221 417,433 490,500 24,22 152,157 168,160 -53,-115 -177,-339 -352,-465 -133,-97 -232,-159 -306,-195z"/>
   <path fill="none" stroke="#839986" stroke-width="10.4134" d="M2610 925c-7,14 182,179 355,327 116,99 158,146 299,324"/>
  </g>
  <g id="_804821220112">
   <path fill="#A1C4A5" d="M522 509c93,154 249,257 342,326 216,160 356,195 383,204 189,65 807,242 1045,226 29,-2 -193,-56 -347,-115 -102,-39 -198,-74 -227,-85 -246,-97 -481,-193 -680,-351 -131,-103 -433,-223 -529,-356 -5,-6 -26,85 13,151z"/>
   <path fill="none" stroke="#839986" stroke-width="6.94094" d="M509 358c6,12 -10,25 26,87 49,84 53,87 141,150 64,46 225,161 289,193 13,7 0,0 114,63 104,57 523,266 644,286 142,24 245,76 374,90 4,0 178,38 182,39"/>
   <g class="firefly1">
    <path fill="#FFED00" fill-opacity="0.368627" d="M1416 811c57,27 81,96 54,153 -1,1 -2,2 -2,3l-207 -99c1,-1 1,-2 2,-3 27,-58 96,-82 153,-54z"/>
    <path fill="#FFED00" fill-opacity="0.368627" d="M1396 843c40,19 56,66 37,105 0,1 -1,2 -1,2l-142 -68c1,0 1,-1 2,-2 18,-39 65,-56 104,-37z"/>
    <path fill="#FFED00" fill-opacity="0.368627" d="M1378 878c20,9 29,33 19,53 0,1 0,1 -1,2l-72 -35c0,-1 0,-1 1,-1 9,-20 33,-29 53,-19z"/>
   </g>
  </g>
  <g id="_804877109536" class="firefly2">
   <path fill="#FFED00" fill-opacity="0.368627" d="M2457 706c61,18 95,82 77,143 0,1 -1,2 -1,4l-220 -66c1,-1 1,-3 1,-4 19,-61 82,-95 143,-77z"/>
   <path fill="#FFED00" fill-opacity="0.368627" d="M2443 741c42,12 65,56 53,98 0,1 -1,1 -1,2l-151 -45c1,-1 1,-2 1,-2 13,-42 56,-66 98,-53z"/>
   <path fill="#FFED00" fill-opacity="0.368627" d="M2430 778c22,6 34,29 27,50 0,0 0,1 0,1l-77 -23c0,0 0,-1 0,-1 7,-21 29,-33 50,-27z"/>
  </g>
  <g id="_804877113024">
   <path fill="#A1C4A5" d="M4467 1218c-182,26 -522,170 -761,153 -7,-1 -7,-2 -12,-6 59,-104 311,-113 757,-148 14,-1 4,0 16,1z"/>
   <path fill="none" stroke="#839986" stroke-width="10.4134" d="M3694 1365c1,-1 170,-36 219,-55 29,-11 481,-84 538,-93"/>
   <g class="firefly3">
    <g>
     <path fill="#FFED00" fill-opacity="0.368627" d="M4322 1130c-13,-60 28,-118 93,-129 1,0 2,0 4,0l47 218c-2,0 -3,1 -5,1 -64,11 -126,-29 -139,-90z"/>
     <path fill="#FFED00" fill-opacity="0.368627" d="M4361 1127c-9,-41 19,-81 63,-88 1,0 2,0 3,-1l32 150c-1,0 -2,1 -3,1 -44,7 -87,-20 -95,-62z"/>
     <path fill="#FFED00" fill-opacity="0.368627" d="M4400 1122c-4,-21 10,-41 33,-45 0,0 1,0 1,0l17 76c-1,0 -1,0 -2,0 -22,4 -44,-10 -49,-31z"/>
    </g>
    <g>
     <path fill="#FFED00" fill-opacity="0.368627" d="M4563 1096c13,61 -29,118 -93,128 -2,1 -3,1 -4,1l-46 -218c1,-1 3,-1 4,-1 64,-11 126,30 139,90z"/>
     <path fill="#FFED00" fill-opacity="0.368627" d="M4524 1099c9,41 -20,81 -64,88 -1,0 -2,0 -3,0l-31 -150c1,0 2,0 3,0 44,-7 87,21 95,62z"/>
     <path fill="#FFED00" fill-opacity="0.368627" d="M4484 1104c5,21 -10,41 -32,45 -1,0 -1,0 -2,0l-16 -76c1,-1 1,-1 2,-1 22,-3 44,11 48,32z"/>
    </g>
   </g>
  </g>
 </g>
</svg>
