<?xml version="1.0" encoding="UTF-8"?>
<!DOCTYPE svg PUBLIC "-//W3C//DTD SVG 1.1//EN" "http://www.w3.org/Graphics/SVG/1.1/DTD/svg11.dtd">
<!-- Creator: CorelDRAW X8 -->
<svg xmlns="http://www.w3.org/2000/svg" xml:space="preserve" width="100%" height="100%" version="1.1" style="shape-rendering:geometricPrecision; text-rendering:geometricPrecision; image-rendering:optimizeQuality; fill-rule:evenodd; clip-rule:evenodd"
viewBox="0 0 5826 1347"
 xmlns:xlink="http://www.w3.org/1999/xlink">
 <defs>
  <style type="text/css">
   <![CDATA[
    .str0 {stroke:#2B2A29;stroke-width:10.4134}
    .str1 {stroke:#2B2A29;stroke-width:6.94094}
    .fil1 {fill:none}
    .fil0 {fill:#2B2A29}
   ]]>
  </style>
 </defs>
 <g id="Layer_x0020_1">
  <metadata id="CorelCorpID_0Corel-Layer"/>
  <path class="fil0 str0" d="M5 455c106,0 806,-38 921,-35 981,25 2272,252 3180,397 64,10 370,66 388,82l0 8c-21,-2 -208,-25 -374,-55 -864,-159 -2187,-373 -3193,-386 -119,-1 -848,37 -922,36l0 -47z"/>
  <g id="_1041217756624">
   <path class="fil1 str0" d="M4483 903c117,-93 217,-222 362,-278 325,-127 686,-30 686,-30 -6,27 -328,-10 -528,56 -85,28 -138,53 -203,88 -71,38 -158,88 -317,164z"/>
   <path class="fil1 str1" d="M5531 595c-60,10 -363,-20 -426,-8 -19,3 -23,-5 -119,30 -11,4 -168,41 -278,132 -10,9 -43,44 -103,73 -24,12 -66,46 -98,61 -4,2 -28,22 -24,20"/>
  </g>
  <path class="fil1 str1" d="M4494 905c8,9 3,26 45,69 56,58 59,59 131,84 52,18 183,62 230,67 10,1 0,0 87,15 78,13 389,46 465,19 90,-32 166,-24 245,-60 2,-1 115,-32 117,-32m-1261 -30c105,106 229,140 305,168 178,65 270,45 288,43 130,-12 544,-83 675,-187 17,-13 -129,22 -237,26 -72,2 -138,7 -159,7 -174,5 -341,5 -508,-63 -110,-46 -323,-42 -423,-126 -5,-4 14,87 59,132z"/>
  <path class="fil1 str0" d="M3051 1071c-11,-6 -96,-132 -74,-189 19,-49 85,-65 112,-55 107,38 201,59 267,162 38,59 56,203 40,234 -119,233 -465,67 -621,-26 -147,-88 -441,-488 -367,-604 24,35 81,90 143,194 95,160 198,282 391,379 90,44 220,107 297,-39 38,-71 -75,-154 -141,-193 -49,-29 -58,124 -47,137zm-643 -478c-36,27 85,218 102,236 108,115 61,146 216,262 149,110 190,118 358,177 79,27 143,30 193,-54 2,-3 8,-10 28,-51 14,-28 34,-73 -8,-143 -55,-90 -116,-133 -198,-136 -67,-3 -70,25 -75,82 -3,28 27,70 18,95"/>
  <g id="_1041217762576">
   <path class="fil1 str0" d="M1311 440c267,-139 517,-354 826,-408 691,-122 1367,211 1367,211 -22,51 -644,-148 -1066,-97 -179,21 -293,51 -435,94 -157,48 -346,112 -692,200z"/>
   <path class="fil1 str1" d="M3504 243c-123,-4 -709,-182 -839,-184 -39,0 -43,-18 -246,14 -24,4 -350,14 -603,152 -23,12 -101,70 -231,103 -52,13 -149,65 -219,82 -9,2 -63,32 -55,30"/>
  </g>
 </g>
</svg>
