<?xml version="1.0" encoding="UTF-8"?>
<!DOCTYPE svg PUBLIC "-//W3C//DTD SVG 1.1//EN" "http://www.w3.org/Graphics/SVG/1.1/DTD/svg11.dtd">
<!-- Creator: CorelDRAW X8 -->
<svg xmlns="http://www.w3.org/2000/svg" xml:space="preserve" width="100%" height="100%" version="1.1" style="shape-rendering:geometricPrecision; text-rendering:geometricPrecision; image-rendering:optimizeQuality; fill-rule:evenodd; clip-rule:evenodd"
viewBox="0 0 573 1017"
 xmlns:xlink="http://www.w3.org/1999/xlink">
 <defs>
  <style type="text/css">
   <![CDATA[
    .fil1 {fill:none}
    .fil0 {fill:#B6CE35;fill-opacity:0.301961}
   ]]>
  </style>
 </defs>
 <g id="Layer_x0020_1">
  <metadata id="CorelCorpID_0Corel-Layer"/>
  <path class="fil0" d="M573 1l0 1015c-12,0 -24,1 -35,1 -297,0 -538,-228 -538,-509 0,-280 241,-508 538,-508 11,0 23,0 35,1z"/>
  <path class="fil0" d="M573 162l0 693c-12,1 -24,1 -35,1 -204,0 -368,-156 -368,-348 0,-192 164,-348 368,-348 11,0 23,1 35,2z"/>
  <path class="fil0" d="M573 299l0 418c-12,2 -23,3 -35,3 -124,0 -224,-95 -224,-212 0,-116 100,-211 224,-211 12,0 23,1 35,2z"/>
  <path class="fil0" d="M573 399l0 219c-11,3 -23,5 -35,5 -67,0 -122,-51 -122,-115 0,-63 55,-114 122,-114 12,0 24,1 35,5z"/>
  <path class="fil1" d="M573 1016c-12,0 -24,1 -35,1 -297,0 -538,-228 -538,-509 0,-280 241,-508 538,-508 11,0 23,0 35,1"/>
 </g>
</svg>
