<?xml version="1.0" encoding="utf-8"?>
<!-- Generator: Adobe Illustrator 18.0.0, SVG Export Plug-In . SVG Version: 6.00 Build 0)  -->
<!DOCTYPE svg PUBLIC "-//W3C//DTD SVG 1.1//EN" "http://www.w3.org/Graphics/SVG/1.1/DTD/svg11.dtd">
<svg version="1.1" id="Layer_1" xmlns="http://www.w3.org/2000/svg" xmlns:xlink="http://www.w3.org/1999/xlink" x="0px" y="0px"
	 viewBox="175.3 -2.3 23.2 144.1" enable-background="new 175.3 -2.3 23.2 144.1" xml:space="preserve">
<path fill="#88B73D" stroke="#88B73D" stroke-miterlimit="10" d="M196.4,95.5l0.9-18.3c-0.2-3.7-0.5-7.5-0.9-11.6l-0.9,7.2l0.5-11.1
	c-0.4-3.7-0.8-7.2-1.2-10.9l-0.8,6.5l0.5-9.2c-0.4-3.2-0.8-6.5-1.3-9.4l-0.8,6.7l0.5-9.4c-0.5-3.4-0.9-6.5-1.4-9.4l-0.6,5.1l0.4-6.7
	c-2.3-14.2-4.3-24.6-4.3-24.6s-2,10.4-4.3,24.7l0.4,6.7l-0.6-4.9c-0.5,2.9-0.9,6-1.4,9.4l0.5,9.2l-0.8-6.8c-0.5,3.2-0.9,6.2-1.3,9.4
	l0.5,9.2l-0.8-6.2c-0.4,3.7-0.8,7.2-1.2,10.9l0.6,10.9l-0.9-7.2c-0.4,3.9-0.6,7.7-0.9,11.6l0.9,18.3l-1.3-10.1c0,1.2,0,2.4,0,3.7
	c0,31.1,4.1,48.1,9.5,50.2L186.8,37l1.3,102.4c5.4-2.2,9.6-19.1,9.6-50.2c0-1.2,0-2.4,0-3.7L196.4,95.5z"/>
<rect x="185.5" y="35.1" fill="#88B73D" width="3" height="105.6"/>
<path fill="#8BC53F" d="M196.4,96.6l0.9-18.5c-0.2-3.7-0.5-7.5-0.9-11.7l-0.9,7.3l0.5-11.2c-0.4-3.7-0.8-7.3-1.2-11l-0.8,6.6
	l0.5-9.3c-0.4-3.2-0.8-6.6-1.3-9.5l-0.8,6.8l0.5-9.5c-0.5-3.5-0.9-6.6-1.4-9.5l-0.6,5l0.4-6.8c-2.3-14.4-4.3-24.9-4.3-24.9
	s-2,10.5-4.3,24.9l0.4,6.8l-0.6-4.9c-0.5,3-0.9,6.1-1.4,9.5l0.5,9.3l-0.8-6.8c-0.5,3.2-0.9,6.3-1.3,9.5l0.5,9.3l-0.8-6.3
	c-0.4,3.7-0.8,7.3-1.2,11l0.6,11l-0.9-7.3c-0.4,3.9-0.6,7.8-0.9,11.7l0.9,18.5l-1.3-10.3c0,1.2,0,2.5,0,3.7
	c0,31.5,4.1,48.7,9.5,50.8l1.3-103.6l1.3,103.6c5.4-2.2,9.5-19.3,9.5-50.8c0-1.2,0-2.5,0-3.7L196.4,96.6z"/>
</svg>
