<?xml version="1.0" encoding="UTF-8"?>
<!DOCTYPE svg PUBLIC "-//W3C//DTD SVG 1.1//EN" "http://www.w3.org/Graphics/SVG/1.1/DTD/svg11.dtd">
<!-- Creator: CorelDRAW X8 -->
<svg xmlns="http://www.w3.org/2000/svg" xml:space="preserve" width="100%" height="100%" version="1.1" style="shape-rendering:geometricPrecision; text-rendering:geometricPrecision; image-rendering:optimizeQuality; fill-rule:evenodd; clip-rule:evenodd"
viewBox="0 0 1075 1017"
 xmlns:xlink="http://www.w3.org/1999/xlink">
 <defs>
  <style type="text/css">
   <![CDATA[
    .fil0 {fill:#B6CE35;fill-opacity:0.301961}
   ]]>
  </style>
 </defs>
 <g id="Layer_x0020_1">
  <metadata id="CorelCorpID_0Corel-Layer"/>
  <path class="fil0" d="M538 0c296,0 537,228 537,508 0,281 -241,509 -537,509 -297,0 -538,-228 -538,-509 0,-280 241,-508 538,-508z"/>
  <path class="fil0" d="M538 160c203,0 367,156 367,348 0,192 -164,348 -367,348 -204,0 -368,-156 -368,-348 0,-192 164,-348 368,-348z"/>
  <path class="fil0" d="M538 297c123,0 223,95 223,211 0,117 -100,212 -223,212 -124,0 -224,-95 -224,-212 0,-116 100,-211 224,-211z"/>
  <path class="fil0" d="M538 394c66,0 121,51 121,114 0,64 -55,115 -121,115 -67,0 -122,-51 -122,-115 0,-63 55,-114 122,-114z"/>
 </g>
</svg>
