<?xml version="1.0" encoding="utf-8"?>
<!-- Generator: Adobe Illustrator 18.0.0, SVG Export Plug-In . SVG Version: 6.00 Build 0)  -->
<!DOCTYPE svg PUBLIC "-//W3C//DTD SVG 1.1//EN" "http://www.w3.org/Graphics/SVG/1.1/DTD/svg11.dtd">
<svg version="1.1" id="Layer_1" xmlns="http://www.w3.org/2000/svg" xmlns:xlink="http://www.w3.org/1999/xlink" x="0px" y="0px"
	 viewBox="0 0 88.9 47.8" enable-background="new 0 0 88.9 47.8" xml:space="preserve">
<g>
	<path fill="#23160B" d="M76.8,33.4c-2.5-1.5-15-7-16.6-9.5c-1.6-2.5-4.1-3-4.2-6c-0.5-13.3,1.2-3.9-2.4-15.4
		C53.4,1.9,53.3,1,53.4,0H34.7c-0.2,3.5-0.9,7.3-1.2,13.5c-0.1,3-0.4,6.1-2,8.6c-1.5,2.4-13.8,8-16.3,9.5c-7.7,4.5-5.9,4.6-14.1,8
		l10.7,0l2,4.1l5.8-5.8l2.7,0.4l4.9,4.3l2.7-3.1l2.3-4l14.3,10.2l-3.9-6.1l3.6-0.2l1.5-5.4l8.2,4.8l-0.1,9.1l3.9-3.2l2.4-6.5
		l5.1,0.3l1.4,1.3l3,3l4.3,4.2l2.8-5.4l4-0.9l4.6-1.1C78.9,36.3,84.6,37.9,76.8,33.4z"/>
</g>
</svg>
