<?xml version="1.0" encoding="UTF-8"?>
<!DOCTYPE svg PUBLIC "-//W3C//DTD SVG 1.0//EN" "http://www.w3.org/TR/2001/REC-SVG-20010904/DTD/svg10.dtd">
<!-- Creator: CorelDRAW X8 -->
<svg xmlns="http://www.w3.org/2000/svg" xml:space="preserve" width="100%" height="100%" version="1.0" shape-rendering="geometricPrecision" text-rendering="geometricPrecision" image-rendering="optimizeQuality" fill-rule="evenodd" clip-rule="evenodd"
viewBox="460 0 6625 1110"
 xmlns:xlink="http://www.w3.org/1999/xlink">
 <g id="Layer_x0020_1">
  <metadata id="CorelCorpID_0Corel-Layer"/>
  <path id="wave1" fill="#0C5D81" d="M5325 139c847,233 564,-339 1611,-55 662,179 334,-355 1434,116 87,37 194,-21 355,-48l0 438 -4041 64 0 1 -4684 74 0 -511c239,-66 144,-139 634,-4 846,233 563,-339 1610,-55 663,179 334,-355 1434,116 1,0 1195,-260 1647,-136z"/>
  <path id="wave2" fill="#066583" d="M4758 430c755,-263 694,303 1256,-69 320,-212 638,-118 938,44 306,167 654,-327 1157,-55 148,80 394,120 616,116l0 422 -4354 62 -1 -3 -4307 61 -63 -178 0 -290c76,21 203,35 450,-52 754,-263 693,304 1255,-69 321,-212 639,-118 938,44 307,167 655,-326 1158,-55 211,114 731,101 957,22z"/>
  <path id="wave3" fill="#0F7597" d="M5224 718c-13,243 797,-385 1124,-61 295,294 520,-411 1160,15 365,243 887,-384 1217,-64l0 647 -4136 -20 -2 7 -4587 -21 0 -704c91,-3 148,42 140,184 -12,243 798,-384 1124,-60 296,294 521,-412 1161,14 368,245 895,-394 1225,-56 451,463 1597,-326 1574,119z"/>
  <path id="wave4" fill="#297991" d="M8725 1398l-3901 3 -1 5 -4823 4 0 -419c61,8 134,26 225,58 318,113 545,-410 1014,6 147,131 467,-301 1119,-150 407,94 233,230 836,10 561,-205 798,324 1091,43 102,-98 197,-35 292,26 517,75 880,-247 1229,63 147,130 466,-301 1119,-151 407,94 233,230 836,10 478,-174 721,185 964,120l0 372z"/>
 </g>
</svg>
